<?xml version="1.0" standalone="no"?>
<!DOCTYPE svg PUBLIC "-//W3C//DTD SVG 20010904//EN"
 "http://www.w3.org/TR/2001/REC-SVG-20010904/DTD/svg10.dtd">
<svg version="1.0" xmlns="http://www.w3.org/2000/svg"
 width="700.000000pt" height="700.000000pt" viewBox="0 0 700.000000 700.000000"
 preserveAspectRatio="xMidYMid meet">
<metadata>
Created by potrace 1.14, written by Peter Selinger 2001-2017
</metadata>
<g transform="translate(0.000000,700.000000) scale(0.100000,-0.100000)"
fill="#000000" stroke="none">
<path d="M3295 6990 c-537 -34 -1064 -189 -1512 -445 -902 -515 -1523 -1380
-1717 -2390 -80 -416 -80 -895 0 -1310 125 -652 424 -1239 883 -1735 l60 -65
1 1331 c0 911 3 1349 11 1389 29 159 119 329 233 440 83 80 2154 1546 2263
1602 113 57 207 77 342 71 193 -10 337 -74 477 -213 64 -64 90 -100 126 -170
24 -50 47 -99 50 -111 4 -14 24 -28 67 -44 172 -64 329 -216 402 -388 25 -61
29 -65 83 -87 149 -61 286 -188 359 -334 24 -47 46 -95 49 -106 3 -14 27 -29
76 -48 134 -53 275 -174 350 -300 47 -78 81 -186 92 -291 6 -53 10 -646 10
-1411 l1 -1320 60 65 c438 473 739 1060 864 1685 89 446 92 911 9 1350 -233
1228 -1115 2245 -2298 2651 -423 145 -906 211 -1341 184z"/>
<path d="M3752 5759 c-75 -9 -119 -23 -187 -57 -71 -35 -2146 -1506 -2217
-1570 -63 -59 -133 -158 -166 -239 -54 -129 -52 -56 -52 -1564 l0 -1398 67
-60 c78 -70 284 -231 295 -231 4 0 9 591 10 1313 3 1222 4 1316 21 1371 49
166 104 261 212 372 67 68 251 202 1145 835 586 414 1094 768 1130 786 86 43
165 63 278 70 50 3 92 8 92 10 0 13 -48 95 -78 133 -131 167 -342 255 -550
229z"/>
<path d="M4178 5255 c-32 -8 -83 -28 -115 -44 -50 -25 -1976 -1381 -2165
-1524 -113 -85 -195 -199 -245 -342 l-28 -80 -3 -1357 -2 -1356 82 -50 c95
-57 251 -142 261 -142 4 0 7 539 7 1198 0 1283 -1 1253 50 1391 49 130 146
264 252 348 60 47 2042 1453 2120 1504 l38 24 -1 170 c0 94 -4 193 -7 220 l-7
50 -90 2 c-50 1 -115 -5 -147 -12z"/>
<path d="M4540 5054 c0 -164 1 -176 18 -169 51 19 147 35 220 35 45 0 82 2 82
5 0 17 -45 90 -81 131 -53 61 -120 114 -186 148 l-53 26 0 -176z"/>
<path d="M4708 4798 c-36 -4 -88 -16 -115 -26 l-48 -18 -3 -343 -2 -343 28 18
c16 11 101 71 191 134 l162 115 -3 222 c-2 131 -7 226 -13 231 -15 14 -121 19
-197 10z"/>
<path d="M5038 4573 c2 -98 5 -179 6 -180 1 -1 24 5 51 13 28 8 94 18 148 21
53 3 97 8 97 10 0 2 -9 23 -21 46 -24 48 -88 127 -138 172 -33 29 -130 95
-141 95 -3 0 -3 -80 -2 -177z"/>
<path d="M3378 3942 c-571 -406 -1058 -757 -1084 -782 -113 -111 -188 -272
-204 -439 -5 -53 -10 -614 -10 -1257 l0 -1161 108 -43 c59 -24 144 -55 189
-71 l82 -28 3 1072 c3 991 5 1077 21 1131 50 169 104 263 217 376 71 71 223
183 907 665 l822 580 1 348 c0 191 -3 347 -7 346 -5 0 -475 -332 -1045 -737z"/>
<path d="M5137 4294 c-32 -7 -67 -18 -77 -24 -20 -11 -20 -34 -20 -1961 l0
-1951 98 53 c53 29 131 73 172 98 l75 47 2 1814 c2 998 0 1842 -5 1875 l-7 60
-90 2 c-51 1 -115 -5 -148 -13z"/>
<path d="M5500 2456 c0 -999 3 -1816 8 -1816 12 0 219 163 300 236 l72 66 -2
1441 c-3 1370 -4 1445 -22 1497 -52 156 -158 287 -287 355 l-69 36 0 -1815z"/>
<path d="M4728 4057 l-187 -132 0 -1882 -1 -1882 98 33 c53 19 139 50 190 71
l92 37 0 1944 c0 1069 -1 1944 -2 1943 -2 0 -87 -59 -190 -132z"/>
<path d="M3675 3309 c-412 -292 -781 -554 -818 -582 -127 -96 -217 -234 -257
-391 -19 -77 -20 -114 -20 -1143 l0 -1063 25 -10 c52 -20 376 -79 520 -96 199
-22 548 -22 750 0 145 16 464 75 517 95 23 9 27 17 33 73 3 35 5 870 3 1856
l-3 1792 -750 -531z"/>
</g>
</svg>
